<?xml version="1.0" encoding="UTF-8" standalone="no"?>
<svg width="48px" height="48px" viewBox="0 0 48 48" version="1.1" xmlns="http://www.w3.org/2000/svg" xmlns:xlink="http://www.w3.org/1999/xlink" xmlns:sketch="http://www.bohemiancoding.com/sketch/ns">
    <!-- Generator: Sketch 3.5.1 (25234) - http://www.bohemiancoding.com/sketch -->
    <title>Group 35</title>
    <desc>Created with Sketch.</desc>
    <defs></defs>
    <g id="Welcome" stroke="none" stroke-width="1" fill="none" fill-rule="evenodd" sketch:type="MSPage">
        <g id="Group-35" sketch:type="MSLayerGroup" fill="#FFFFFF">
            <path d="M24,-1.20025652e-06 C10.751166,-1.20025652e-06 1.2e-05,10.7511988 0,23.9999988 C1.2e-05,37.2488988 10.751166,47.9999988 24,47.9999988 C37.248835,47.9999988 47.999988,37.2488988 48,23.9999988 C47.999988,10.7511988 37.248835,-1.20025652e-06 24,-1.20025652e-06 L24,-1.20025652e-06 Z M24,1.0117176 C36.702149,1.0117176 46.98827,11.2978988 46.988281,23.9999988 C46.98827,36.7021988 36.702149,46.9902328 24,46.9902328 C11.297851,46.9902328 1.0117297,36.7021988 1.0117188,23.9999988 C1.0117297,11.2978988 11.297851,1.0117176 24,1.0117176 L24,1.0117176 Z M28.792969,8.9980457 C28.7786246,8.99808013 28.7642884,8.99873176 28.75,8.9999988 L16,8.9999988 C14.346641,8.9999988 13,10.3466988 13,11.9999988 L13,27.9999988 L9.5,27.9999988 C9.22386905,28.0000264 9.00002758,28.2238679 9,28.4999988 L9,29.9999988 C9,32.2073988 10.792648,33.9999988 13,33.9999988 L23,33.9999988 L23,36.4999988 C23.0000276,36.7761297 23.2238691,36.9999712 23.5,36.9999988 L37.5,36.9999988 C37.7761309,36.9999712 37.9999724,36.7761297 38,36.4999988 L38,18.4999988 C37.9999724,18.2238679 37.7761309,18.0000264 37.5,17.9999988 L32,17.9999988 L32,12.0312488 C32,10.3649488 30.656575,8.9999988 29,8.9999988 L28.84375,8.9999988 C28.826867,8.99848751 28.8099182,8.99783564 28.792969,8.9980457 L28.792969,8.9980457 Z M16,9.9999988 L26.78125,9.9999988 C26.29225,10.5400988 26,11.2458488 26,12.0312488 L26,17.9999988 L23.5,17.9999988 C23.2238691,18.0000264 23.0000276,18.2238679 23,18.4999988 L23,27.9687488 L14,27.9999988 L14,11.9999988 C14,10.8833988 14.88334,9.9999988 16,9.9999988 L16,9.9999988 Z M28.8125,9.9999988 C28.87474,9.9899988 28.936142,9.9999988 29,9.9999988 C30.113423,9.9999988 31,10.8956488 31,12.0312488 L31,17.9999988 L27,17.9999988 L27,12.0312488 C27,10.9607488 27.789508,10.0947988 28.8125,9.9999988 L28.8125,9.9999988 Z M15,11.9999988 L15,12.9999988 L16,12.9999988 L16,11.9999988 L15,11.9999988 L15,11.9999988 Z M17,11.9999988 L17,12.9999988 L25,12.9999988 L25,11.9999988 L17,11.9999988 L17,11.9999988 Z M15,13.9999988 L15,14.9999988 L16,14.9999988 L16,13.9999988 L15,13.9999988 L15,13.9999988 Z M17,13.9999988 L17,14.9999988 L25,14.9999988 L25,13.9999988 L17,13.9999988 L17,13.9999988 Z M15,15.9999988 L15,16.9999988 L16,16.9999988 L16,15.9999988 L15,15.9999988 L15,15.9999988 Z M17,15.9999988 L17,16.9999988 L25,16.9999988 L25,15.9999988 L17,15.9999988 L17,15.9999988 Z M15,17.9999988 L15,18.9999988 L16,18.9999988 L16,17.9999988 L15,17.9999988 L15,17.9999988 Z M17,17.9999988 L17,18.9999988 L22,18.9999988 L22,17.9999988 L17,17.9999988 L17,17.9999988 Z M24,18.9999988 L26.40625,18.9999988 L31.59375,18.9999988 L37,18.9999988 L37,35.9999988 L24,35.9999988 L24,33.5937488 C24.0029359,33.5625678 24.0029359,33.5311798 24,33.4999988 L24,28.4687488 C24.0029359,28.4375678 24.0029359,28.4061798 24,28.3749988 L24,18.9999988 L24,18.9999988 Z M24.900391,19.4941398 C24.8814147,19.4950153 24.8625037,19.4969715 24.84375,19.4999988 C24.6295877,19.5701628 24.4888218,19.7749132 24.5,19.9999988 L24.5,22.9999988 C24.5000276,23.2761297 24.7238691,23.4999712 25,23.4999988 L36,23.4999988 C36.2761309,23.4999712 36.4999724,23.2761297 36.5,22.9999988 L36.5,19.9999988 C36.4999724,19.7238679 36.2761309,19.5000264 36,19.4999988 L25,19.4999988 C24.9670754,19.4947297 24.9337063,19.4927669 24.900391,19.4941398 L24.900391,19.4941398 Z M15,19.9999988 L15,20.9999988 L16,20.9999988 L16,19.9999988 L15,19.9999988 L15,19.9999988 Z M17,19.9999988 L17,20.9999988 L22,20.9999988 L22,19.9999988 L17,19.9999988 L17,19.9999988 Z M25.5,20.4999988 L35.5,20.4999988 L35.5,22.4999988 L25.5,22.4999988 L25.5,20.4999988 L25.5,20.4999988 Z M18,21.9999988 L18,22.9999988 L22,22.9999988 L22,21.9999988 L18,21.9999988 L18,21.9999988 Z M25.449219,23.9980458 C25.4348746,23.9980802 25.4205384,23.9987318 25.40625,23.9999988 C25.167209,24.0456096 24.9957118,24.2566831 25,24.4999988 L25,26.4999988 C25.0000276,26.7761297 25.2238691,26.9999712 25.5,26.9999988 L27.5,26.9999988 C27.7761309,26.9999712 27.9999724,26.7761297 28,26.4999988 L28,24.4999988 C27.9999724,24.2238679 27.7761309,24.0000264 27.5,23.9999988 L25.5,23.9999988 C25.483117,23.9984875 25.4661682,23.9978357 25.449219,23.9980458 L25.449219,23.9980458 Z M29.449219,23.9980458 C29.4348746,23.9980802 29.4205384,23.9987318 29.40625,23.9999988 C29.167209,24.0456096 28.9957118,24.2566831 29,24.4999988 L29,26.4999988 C29.0000276,26.7761297 29.2238691,26.9999712 29.5,26.9999988 L31.5,26.9999988 C31.7761309,26.9999712 31.9999724,26.7761297 32,26.4999988 L32,24.4999988 C31.9999724,24.2238679 31.7761309,24.0000264 31.5,23.9999988 L29.5,23.9999988 C29.483117,23.9984875 29.4661682,23.9978357 29.449219,23.9980458 L29.449219,23.9980458 Z M33.449219,23.9980458 C33.4348746,23.9980802 33.4205384,23.9987318 33.40625,23.9999988 C33.167209,24.0456096 32.9957118,24.2566831 33,24.4999988 L33,26.4999988 C33.0000276,26.7761297 33.2238691,26.9999712 33.5,26.9999988 L35.5,26.9999988 C35.7761309,26.9999712 35.9999724,26.7761297 36,26.4999988 L36,24.4999988 C35.9999724,24.2238679 35.7761309,24.0000264 35.5,23.9999988 L33.5,23.9999988 C33.483117,23.9984875 33.4661682,23.9978357 33.449219,23.9980458 L33.449219,23.9980458 Z M18,23.9999988 L18,24.9999988 L22,24.9999988 L22,23.9999988 L18,23.9999988 L18,23.9999988 Z M26,24.9999988 L27,24.9999988 L27,25.9999988 L26,25.9999988 L26,24.9999988 L26,24.9999988 Z M30,24.9999988 L31,24.9999988 L31,25.9999988 L30,25.9999988 L30,24.9999988 L30,24.9999988 Z M34,24.9999988 L35,24.9999988 L35,25.9999988 L34,25.9999988 L34,24.9999988 L34,24.9999988 Z M25.449219,27.9980458 C25.4348746,27.9980802 25.4205384,27.9987318 25.40625,27.9999988 C25.167209,28.0456096 24.9957118,28.2566831 25,28.4999988 L25,30.4999988 C25.0000276,30.7761297 25.2238691,30.9999712 25.5,30.9999988 L27.5,30.9999988 C27.7761309,30.9999712 27.9999724,30.7761297 28,30.4999988 L28,28.4999988 C27.9999724,28.2238679 27.7761309,28.0000264 27.5,27.9999988 L25.5,27.9999988 C25.483117,27.9984875 25.4661682,27.9978357 25.449219,27.9980458 L25.449219,27.9980458 Z M29.449219,27.9980458 C29.4348746,27.9980802 29.4205384,27.9987318 29.40625,27.9999988 C29.167209,28.0456096 28.9957118,28.2566831 29,28.4999988 L29,30.4999988 C29.0000276,30.7761297 29.2238691,30.9999712 29.5,30.9999988 L31.5,30.9999988 C31.7761309,30.9999712 31.9999724,30.7761297 32,30.4999988 L32,28.4999988 C31.9999724,28.2238679 31.7761309,28.0000264 31.5,27.9999988 L29.5,27.9999988 C29.483117,27.9984875 29.4661682,27.9978357 29.449219,27.9980458 L29.449219,27.9980458 Z M33.449219,27.9980458 C33.4348746,27.9980802 33.4205384,27.9987318 33.40625,27.9999988 C33.167209,28.0456096 32.9957118,28.2566831 33,28.4999988 L33,34.4999988 C33.0000276,34.7761297 33.2238691,34.9999712 33.5,34.9999988 L35.5,34.9999988 C35.7761309,34.9999712 35.9999724,34.7761297 36,34.4999988 L36,28.4999988 C35.9999724,28.2238679 35.7761309,28.0000264 35.5,27.9999988 L33.5,27.9999988 C33.483117,27.9984875 33.4661682,27.9978357 33.449219,27.9980458 L33.449219,27.9980458 Z M23,28.9687488 L23,32.9999988 L13,32.9999988 C11.329351,32.9999988 10,31.6705988 10,29.9999988 L10,28.9999988 L23,28.9687488 L23,28.9687488 Z M26,28.9999988 L27,28.9999988 L27,29.9999988 L26,29.9999988 L26,28.9999988 L26,28.9999988 Z M30,28.9999988 L31,28.9999988 L31,29.9999988 L30,29.9999988 L30,28.9999988 L30,28.9999988 Z M34,28.9999988 L35,28.9999988 L35,33.9999988 L34,33.9999988 L34,28.9999988 L34,28.9999988 Z M25.449219,31.9980458 C25.4348746,31.9980802 25.4205384,31.9987318 25.40625,31.9999988 C25.167209,32.0456096 24.9957118,32.2566831 25,32.4999988 L25,34.4999988 C25.0000276,34.7761297 25.2238691,34.9999712 25.5,34.9999988 L27.5,34.9999988 C27.7761309,34.9999712 27.9999724,34.7761297 28,34.4999988 L28,32.4999988 C27.9999724,32.2238679 27.7761309,32.0000264 27.5,31.9999988 L25.5,31.9999988 C25.483117,31.9984875 25.4661682,31.9978357 25.449219,31.9980458 L25.449219,31.9980458 Z M29.449219,31.9980458 C29.4348746,31.9980802 29.4205384,31.9987318 29.40625,31.9999988 C29.167209,32.0456096 28.9957118,32.2566831 29,32.4999988 L29,34.4999988 C29.0000276,34.7761297 29.2238691,34.9999712 29.5,34.9999988 L31.5,34.9999988 C31.7761309,34.9999712 31.9999724,34.7761297 32,34.4999988 L32,32.4999988 C31.9999724,32.2238679 31.7761309,32.0000264 31.5,31.9999988 L29.5,31.9999988 C29.483117,31.9984875 29.4661682,31.9978357 29.449219,31.9980458 L29.449219,31.9980458 Z M26,32.9999988 L27,32.9999988 L27,33.9999988 L26,33.9999988 L26,32.9999988 L26,32.9999988 Z M30,32.9999988 L31,32.9999988 L31,33.9999988 L30,33.9999988 L30,32.9999988 L30,32.9999988 Z" id="Shape" sketch:type="MSShapeGroup"></path>
        </g>
    </g>
</svg>