<?xml version="1.0" encoding="UTF-8" standalone="no"?>
<svg width="48px" height="48px" viewBox="0 0 48 48" version="1.1" xmlns="http://www.w3.org/2000/svg" xmlns:xlink="http://www.w3.org/1999/xlink" xmlns:sketch="http://www.bohemiancoding.com/sketch/ns">
    <!-- Generator: Sketch 3.5.1 (25234) - http://www.bohemiancoding.com/sketch -->
    <title>Group 37</title>
    <desc>Created with Sketch.</desc>
    <defs></defs>
    <g id="Welcome" stroke="none" stroke-width="1" fill="none" fill-rule="evenodd" sketch:type="MSPage">
        <g id="Group-37" sketch:type="MSLayerGroup" fill="#FFFFFF">
            <path d="M24,-1.20025652e-06 C10.751166,-1.20025652e-06 1.2e-05,10.7511988 0,23.9999988 C1.2e-05,37.2488988 10.751166,47.9999988 24,47.9999988 C37.248835,47.9999988 47.999988,37.2488988 48,23.9999988 C47.999988,10.7511988 37.248835,-1.20025652e-06 24,-1.20025652e-06 L24,-1.20025652e-06 Z M24,1.0117176 C36.702149,1.0117176 46.98827,11.2978988 46.988281,23.9999988 C46.98827,36.7021988 36.702149,46.9902328 24,46.9902328 C11.297851,46.9902328 1.0117297,36.7021988 1.0117188,23.9999988 C1.0117297,11.2978988 11.297851,1.0117176 24,1.0117176 L24,1.0117176 Z M10.449219,9.9980457 C10.4348465,9.99872892 10.4205101,10.0000322 10.40625,10.0019518 C10.167209,10.0475626 9.99571179,10.2586361 10,10.5019518 L10,37.5019518 C10.0000276,37.7780827 10.2238691,38.0019242 10.5,38.0019518 L37.5,38.0019518 C37.7761309,38.0019242 37.9999724,37.7780827 38,37.5019518 L38,22.8769518 L38,18.3144518 L38,10.5019518 C37.9999724,10.2258209 37.7761309,10.0019794 37.5,10.0019518 L10.5,10.0019518 C10.4831503,9.99978803 10.4662014,9.99848431 10.449219,9.9980457 L10.449219,9.9980457 Z M11,11.0019518 L37,11.0019518 L37,14.0019518 L11,14.0019518 L11,11.0019518 L11,11.0019518 Z M12.449219,11.9980458 C12.4348465,11.9987289 12.4205101,12.0000321 12.40625,12.0019518 C12.167197,12.0475425 11.9956897,12.2586284 12,12.5019518 C11.999999,12.6345603 12.0526771,12.7617379 12.1464455,12.8555063 C12.2402139,12.9492747 12.3673915,13.0019528 12.5,13.0019518 C12.6326085,13.0019528 12.7597861,12.9492747 12.8535545,12.8555063 C12.9473229,12.7617379 13.000001,12.6345603 13,12.5019518 C13.000001,12.3693433 12.9473229,12.2421657 12.8535545,12.1483973 C12.7597861,12.0546289 12.6326085,12.0019508 12.5,12.0019518 C12.4831503,11.999788 12.4662014,11.9984843 12.449219,11.9980458 L12.449219,11.9980458 Z M14.449219,11.9980458 C14.4348465,11.9987289 14.4205101,12.0000321 14.40625,12.0019518 C14.1671973,12.0475429 13.9956902,12.2586286 14,12.5019518 C13.9999994,12.6345602 14.0526776,12.7617376 14.1464459,12.8555059 C14.2402142,12.9492742 14.3673916,13.0019524 14.5,13.0019518 C14.6326084,13.0019524 14.7597858,12.9492742 14.8535541,12.8555059 C14.9473224,12.7617376 15.0000006,12.6345602 15,12.5019518 C15.0000006,12.3693434 14.9473224,12.242166 14.8535541,12.1483977 C14.7597858,12.0546294 14.6326084,12.0019512 14.5,12.0019518 C14.4831503,11.999788 14.4662014,11.9984843 14.449219,11.9980458 L14.449219,11.9980458 Z M16.449219,11.9980458 C16.4348465,11.998729 16.4205101,12.0000322 16.40625,12.0019518 C16.1672045,12.047555 15.9957034,12.2586332 16,12.5019518 C16.0000164,12.7780874 16.2238644,13.0019354 16.5,13.0019518 C16.7761356,13.0019354 16.9999836,12.7780874 17,12.5019518 C16.9999836,12.2258162 16.7761356,12.0019682 16.5,12.0019518 C16.4831503,11.999788 16.4662014,11.9984843 16.449219,11.9980458 L16.449219,11.9980458 Z M11,15.0019518 L37,15.0019518 L37,18.3144518 L37,22.8769518 L37,37.0019518 L11,37.0019518 L11,15.0019518 L11,15.0019518 Z M18.001953,18.9999988 C17.9908667,19.0002814 17.9797929,19.0009328 17.96875,19.0019518 C17.9583359,19.0016262 17.9479141,19.0016262 17.9375,19.0019518 L17.4375,19.0019518 L16.375,19.0019518 L15.875,19.0019518 L15.875,20.0019518 L16.375,20.0019518 L17.4375,20.0019518 L17.59375,20.0019518 L20.0625,30.2519518 C19.432755,30.5894518 19.000006,31.2420518 19,32.0019518 C19.000009,33.1003518 19.901844,34.0019518 21,34.0019518 C22.098155,34.0019518 22.999991,33.1003518 23,32.0019518 C22.999997,31.6390518 22.889929,31.2961518 22.71875,31.0019518 L25.28125,31.0019518 C25.110071,31.2961518 25.000003,31.6390518 25,32.0019518 C25.00001,33.1003518 25.901844,34.0019518 27,34.0019518 C28.098156,34.0019518 28.999991,33.1003518 29,32.0019518 C28.999991,30.9036518 28.098156,30.0019518 27,30.0019518 C26.9584973,29.9967235 26.9165027,29.9967235 26.875,30.0019518 L21.03125,30.0019518 L20.5625,28.0019518 L27.90625,28.0019518 C28.1313356,28.01313 28.336086,27.8723641 28.40625,27.6582018 L30.34375,21.6582018 C30.3935174,21.5068938 30.3682234,21.3409278 30.2756424,21.2113144 C30.1830613,21.0817009 30.0342699,21.0039474 29.875,21.0019518 L18.96875,21.0019518 L18.875,21.0019518 L18.5,19.4082018 C18.4553477,19.1691197 18.2451486,18.996839 18.001953,18.9999988 L18.001953,18.9999988 Z M19.125,22.0019518 L29.1875,22.0019518 L28.875,23.0019518 L24,23.0019518 L24,24.0019518 L28.53125,24.0019518 L28.21875,25.0019518 L25,25.0019518 L25,26.0019518 L27.875,26.0019518 L27.5625,27.0019518 L20.3125,27.0019518 L19.125,22.0019518 L19.125,22.0019518 Z M21,31.0019518 C21.557403,31.0019518 21.999995,31.4437518 22,32.0019518 C21.999995,32.5601518 21.557403,33.0019518 21,33.0019518 C20.442596,33.0019518 20.000005,32.5601518 20,32.0019518 C20.000005,31.4437518 20.442596,31.0019518 21,31.0019518 L21,31.0019518 Z M26.9375,31.0019518 L27,31.0019518 C27.557404,31.0019518 27.999995,31.4437518 28,32.0019518 C27.999995,32.5601518 27.557404,33.0019518 27,33.0019518 C26.442597,33.0019518 26.000005,32.5601518 26,32.0019518 C26.000005,31.4656518 26.411233,31.0346518 26.9375,31.0019518 L26.9375,31.0019518 Z" id="Shape" sketch:type="MSShapeGroup"></path>
        </g>
    </g>
</svg>