<?xml version="1.0" encoding="UTF-8" standalone="no"?>
<svg width="48px" height="48px" viewBox="0 0 48 48" version="1.1" xmlns="http://www.w3.org/2000/svg" xmlns:xlink="http://www.w3.org/1999/xlink" xmlns:sketch="http://www.bohemiancoding.com/sketch/ns">
    <!-- Generator: Sketch 3.5.1 (25234) - http://www.bohemiancoding.com/sketch -->
    <title>Group 36</title>
    <desc>Created with Sketch.</desc>
    <defs></defs>
    <g id="Welcome" stroke="none" stroke-width="1" fill="none" fill-rule="evenodd" sketch:type="MSPage">
        <g id="Group-36" sketch:type="MSLayerGroup" fill="#FFFFFF">
            <path d="M24,-1.20025652e-06 C10.751166,-1.20025652e-06 1.2e-05,10.7511988 0,23.9999988 C1.2e-05,37.2488988 10.751166,47.9999988 24,47.9999988 C37.248835,47.9999988 47.999988,37.2488988 48,23.9999988 C47.999988,10.7511988 37.248835,-1.20025652e-06 24,-1.20025652e-06 L24,-1.20025652e-06 Z M24,1.0117176 C36.702149,1.0117176 46.98827,11.2978988 46.988281,23.9999988 C46.98827,36.7021988 36.702149,46.9902328 24,46.9902328 C11.297851,46.9902328 1.0117297,36.7021988 1.0117188,23.9999988 C1.0117297,11.2978988 11.297851,1.0117176 24,1.0117176 L24,1.0117176 Z M18.388672,7.9374988 C17.640282,7.9374988 17.013672,8.5640988 17.013672,9.3124988 L17.013672,10.0312488 L10.013672,11.9062488 C9.2908517,12.0999488 8.8512387,12.8708488 9.0449219,13.5937488 L11.388672,22.2499988 C10.708283,22.6297988 10.232422,23.3309488 10.232422,24.1562488 L10.232422,37.7812488 C10.232422,39.0039488 11.250042,39.9999988 12.482422,39.9999988 L35.763672,39.9999988 C36.996052,39.9999988 38.013672,39.0039488 38.013672,37.7812488 L38.013672,24.1562488 C38.013672,23.2494488 37.461904,22.4662988 36.669922,22.1249988 L38.982422,13.5937488 C39.176105,12.8708488 38.736492,12.0999488 38.013672,11.9062488 L31.013672,10.0312488 L31.013672,9.3124988 C31.013672,8.5640988 30.387061,7.9374988 29.638672,7.9374988 L18.388672,7.9374988 L18.388672,7.9374988 Z M18.388672,8.9374988 L29.638672,8.9374988 C29.850536,8.9374988 30.013672,9.1008988 30.013672,9.3124988 L30.013672,10.3437488 C30.0133464,10.3541629 30.0133464,10.3645847 30.013672,10.3749988 L30.013672,10.4374988 C30.0107361,10.4686798 30.0107361,10.5000678 30.013672,10.5312488 L30.013672,21.9374988 L29.013672,21.9374988 L29.013672,11.4687488 C29.0136444,11.1926179 28.7898029,10.9687764 28.513672,10.9687488 C28.221697,10.9687488 27.982422,10.7403988 27.982422,10.4374988 C27.9823944,10.1613679 27.7585529,9.9375264 27.482422,9.9374988 L20.544922,9.9374988 C20.2687911,9.9375264 20.0449496,10.1613679 20.044922,10.4374988 C20.044922,10.7403988 19.805647,10.9687488 19.513672,10.9687488 C19.2375411,10.9687764 19.0136996,11.1926179 19.013672,11.4687488 L19.013672,21.9374988 L18.013672,21.9374988 L18.013672,10.5312488 C18.0348393,10.4492596 18.0348393,10.363238 18.013672,10.2812488 L18.013672,9.3124988 C18.013672,9.1008988 18.176806,8.9374988 18.388672,8.9374988 L18.388672,8.9374988 Z M20.826172,10.9374988 L27.201172,10.9374988 C27.355791,11.3351988 27.618358,11.6239488 28.013672,11.7812488 L28.013672,21.9374988 L25.044922,21.9374988 L22.982422,21.9374988 L20.013672,21.9374988 L20.013672,11.7812488 C20.408971,11.6239488 20.671569,11.3351988 20.826172,10.9374988 L20.826172,10.9374988 Z M22.982422,21.9374988 C23.757579,21.9374988 24.357422,21.2418988 24.357422,20.4374988 C24.357422,19.9510988 24.672451,19.6249988 25.044922,19.6249988 C25.41751,19.6249988 25.763672,19.9510988 25.763672,20.4374988 C25.763672,20.9239988 25.417394,21.2812488 25.044922,21.2812488 C24.594176,21.2682488 24.594176,21.9438988 25.044922,21.9374988 C25.70086,21.9374988 26.186538,21.4241488 26.326172,20.7812488 L26.669922,20.7812488 C27.120785,20.7952488 27.120785,20.1184988 26.669922,20.1249988 L26.294922,20.1249988 C26.154588,19.4825988 25.700159,18.9374988 25.044922,18.9374988 C24.341972,18.9374988 23.669922,19.4536488 23.669922,20.4062488 L23.669922,20.4374988 C23.669922,20.9238988 23.354777,21.2812488 22.982422,21.2812488 C22.614732,21.2812488 22.272422,20.9448488 22.263672,20.4687488 L22.263672,20.4374988 C22.277672,19.9620988 22.615316,19.6249988 22.982422,19.6249988 C23.433167,19.6389988 23.433167,18.9310988 22.982422,18.9374988 C22.317267,18.9374988 21.775973,19.4718988 21.638672,20.1249988 L21.357422,20.1249988 C21.169261,20.1249988 21.010522,20.2493988 21.013672,20.4374988 C21.013672,20.6215988 21.173226,20.7840488 21.357422,20.7812488 L21.638672,20.7812488 C21.776089,21.4343488 22.317269,21.9374988 22.982422,21.9374988 L22.982422,21.9374988 Z M17.013672,11.0624988 L17.013672,12.1249988 L12.638672,13.2812488 C12.5037851,13.3105373 12.3870038,13.3942786 12.3159879,13.5126383 C12.244972,13.6309981 12.2260386,13.7734481 12.263672,13.9062488 C12.342062,14.1988488 12.201972,14.4556488 11.919922,14.5312488 C11.7850351,14.5605373 11.6682538,14.6442786 11.5972379,14.7626383 C11.526222,14.8809981 11.5072886,15.0234481 11.544922,15.1562488 L13.357422,21.9374988 L12.482422,21.9374988 C12.440712,21.9374988 12.398602,21.9667488 12.357422,21.9687488 L10.013672,13.3124988 C9.9588889,13.1079988 10.090192,12.9297988 10.294922,12.8749988 L17.013672,11.0624988 L17.013672,11.0624988 Z M31.013672,11.0624988 L37.732422,12.8749988 C37.937152,12.9299988 38.068455,13.1079988 38.013672,13.3124988 L35.669922,21.9374988 L34.669922,21.9374988 L36.482422,15.1562488 C36.5200554,15.0234481 36.501122,14.8809981 36.4301061,14.7626383 C36.3590902,14.6442786 36.2423089,14.5605373 36.107422,14.5312488 C35.825369,14.4552488 35.685277,14.1988488 35.763672,13.9062488 C35.8013054,13.7734481 35.782372,13.6309981 35.7113561,13.5126383 C35.6403402,13.3942786 35.5235589,13.3105373 35.388672,13.2812488 L31.013672,12.1249988 L31.013672,11.0624988 L31.013672,11.0624988 Z M24.013672,11.9374988 C23.461916,11.9374988 23.013672,12.3844988 23.013672,12.9374988 C23.013672,13.4905988 23.461916,13.9374988 24.013672,13.9374988 C24.565727,13.9374988 25.013672,13.4905988 25.013672,12.9374988 C25.013672,12.3844988 24.565727,11.9374988 24.013672,11.9374988 L24.013672,11.9374988 Z M17.013672,13.1249988 L17.013672,14.3124988 C16.848914,14.2674988 16.690213,14.2654988 16.513672,14.3124988 C15.980428,14.4553988 15.651795,14.9970488 15.794922,15.5312488 C15.938074,16.0654488 16.480428,16.3928988 17.013672,16.2499988 L17.013672,21.9374988 L14.388672,21.9374988 L12.607422,15.1874988 C12.949531,14.9330988 13.123679,14.5812488 13.169922,14.1562488 L17.013672,13.1249988 L17.013672,13.1249988 Z M31.013672,13.1249988 L34.857422,14.1562488 C34.903662,14.5812488 35.077813,14.9330988 35.419922,15.1874988 L33.607422,21.9374988 L31.013672,21.9374988 L31.013672,16.2499988 C31.546916,16.3928988 32.08927,16.0654488 32.232422,15.5312488 C32.375549,14.9970488 32.046916,14.4553988 31.513672,14.3124988 C31.337131,14.2654988 31.17843,14.2674988 31.013672,14.3124988 L31.013672,13.1249988 L31.013672,13.1249988 Z M12.482422,22.9374988 L35.763672,22.9374988 C36.471598,22.9374988 37.013672,23.4827488 37.013672,24.1562488 L37.013672,27.9374988 L27.482422,27.9374988 L26.013672,29.4062488 L26.013672,30.7499988 L26.013672,33.4999988 L27.482422,34.9374988 L37.013672,34.9374988 L37.013672,37.7812488 C37.013672,38.4547488 36.471598,38.9999988 35.763672,38.9999988 L12.482422,38.9999988 C11.774494,38.9999988 11.232422,38.4547488 11.232422,37.7812488 L11.232422,24.1562488 C11.232422,23.4827488 11.774494,22.9374988 12.482422,22.9374988 L12.482422,22.9374988 Z M27.888672,28.9374988 L37.013672,28.9374988 L37.013672,33.9374988 L27.888672,33.9374988 L27.013672,33.0937488 L27.013672,30.7499988 L27.013672,29.8124988 L27.888672,28.9374988 L27.888672,28.9374988 Z M29.451172,30.0937488 C28.667345,30.0937488 28.013671,30.7473488 28.013672,31.5312488 C28.013671,32.3150488 28.667345,32.9374988 29.451172,32.9374988 C30.234998,32.9374988 30.888673,32.3150488 30.888672,31.5312488 C30.888673,30.7473488 30.234998,30.0937488 29.451172,30.0937488 L29.451172,30.0937488 Z M29.451172,31.0937488 C29.694394,31.0937488 29.888672,31.2876488 29.888672,31.5312488 C29.888672,31.7747488 29.694394,31.9374988 29.451172,31.9374988 C29.207949,31.9374988 29.013672,31.7747488 29.013672,31.5312488 C29.013672,31.2876488 29.207949,31.0937488 29.451172,31.0937488 L29.451172,31.0937488 Z" id="Shape" sketch:type="MSShapeGroup"></path>
        </g>
    </g>
</svg>